# Blender v2.78 (sub 0) OBJ File: 'pods.blend'
# www.blender.org
o Pod4
v 0.502019 0.686214 0.443750
v 0.502019 0.686214 0.556250
v 0.558269 0.588786 0.443750
v 0.558269 0.588786 0.556250
v 0.661274 0.785377 0.437500
v 0.661274 0.785377 0.562500
v 0.723774 0.677123 0.437500
v 0.723774 0.677123 0.562500
v 0.684151 0.870753 0.375000
v 0.684151 0.870753 0.625000
v 0.809151 0.654247 0.375000
v 0.809151 0.654247 0.625000
v 0.738277 0.902003 0.375000
v 0.738277 0.902003 0.625000
v 0.863277 0.685497 0.375000
v 0.863277 0.685497 0.625000
v 0.823654 0.879127 0.437500
v 0.823654 0.879127 0.562500
v 0.886154 0.770873 0.437500
v 0.886154 0.770873 0.562500
vt 0.5000 1.0000
vt 0.5000 0.6875
vt 0.8125 0.6875
vt 0.8125 1.0000
vt 0.5000 0.5000
vt 0.1562 0.5000
vt 0.0000 0.3438
vt 0.6562 0.3438
vt 0.5000 1.0000
vt 0.1562 1.0000
vt 0.5000 1.0000
vt 0.1562 1.0000
vt 0.1562 0.5000
vt 0.5000 0.5000
vt 0.1562 1.0000
vt 0.1562 0.5000
vt 0.5000 0.5000
vt 0.5000 1.0000
vt 0.1562 1.0000
vt 0.1562 0.5000
vt 0.5000 0.5000
vt 0.0000 0.1562
vt 0.6562 0.1562
vt 0.0000 0.3438
vt 0.6562 0.3438
vt 0.0000 0.3438
vt 0.6562 0.3438
vt 0.0000 0.3438
vt 0.6562 0.3438
vt 0.1562 0.0000
vt 0.5000 0.0000
vt 0.0000 0.1562
vt 0.6562 0.1562
vt 0.0000 0.1562
vt 0.6562 0.1562
vt 0.0000 0.1562
vt 0.6562 0.1562
vt 0.8125 0.6875
vt 0.8125 1.0000
vt 0.5000 1.0000
vt 0.5000 0.6875
vt 0.1562 0.0000
vt 0.5000 0.0000
vt 0.1562 0.0000
vt 0.5000 0.0000
vt 0.1562 0.0000
vt 0.5000 0.0000
vn -0.8660 -0.5000 -0.0000
vn -0.2588 -0.9659 0.0000
vn 0.4709 -0.8822 0.0000
vn -0.0289 -0.0167 0.9994
vn -0.5286 0.8489 0.0000
vn -0.0289 -0.0167 -0.9994
vn 0.5000 -0.8660 0.0000
vn -0.6124 -0.3536 0.7071
vn -0.9659 0.2588 0.0000
vn -0.6124 -0.3536 -0.7071
vn 0.9659 -0.2588 0.0000
vn 0.0000 0.0000 1.0000
vn -0.5000 0.8660 0.0000
vn 0.0000 0.0000 -1.0000
vn 0.8660 0.5000 0.0000
vn 0.6124 0.3536 0.7071
vn 0.2588 0.9659 0.0000
vn 0.6124 0.3536 -0.7071
s off
f 1/1/1 3/2/1 4/3/1 2/4/1
f 8/5/2 7/6/2 11/7/2 12/8/2
f 4/9/3 3/10/3 7/6/3 8/5/3
f 2/11/4 4/12/4 8/13/4 6/14/4
f 1/1/5 2/15/5 6/16/5 5/17/5
f 3/18/6 1/19/6 5/20/6 7/21/6
f 12/8/7 11/7/7 15/22/7 16/23/7
f 6/14/8 8/13/8 12/24/8 10/25/8
f 5/17/9 6/16/9 10/26/9 9/27/9
f 7/21/10 5/20/10 9/28/10 11/29/10
f 16/23/11 15/22/11 19/30/11 20/31/11
f 10/25/12 12/24/12 16/32/12 14/33/12
f 9/27/13 10/26/13 14/34/13 13/35/13
f 11/29/14 9/28/14 13/36/14 15/37/14
f 17/38/15 18/39/15 20/40/15 19/41/15
f 14/33/16 16/32/16 20/42/16 18/43/16
f 13/35/17 14/34/17 18/44/17 17/45/17
f 15/37/18 13/36/18 17/46/18 19/47/18
o Pod3
v 0.556250 0.498714 0.502019
v 0.443750 0.498714 0.502019
v 0.556250 0.401286 0.558269
v 0.443750 0.401286 0.558269
v 0.562500 0.597877 0.661274
v 0.437500 0.597877 0.661274
v 0.562500 0.489623 0.723774
v 0.437500 0.489623 0.723774
v 0.625000 0.683253 0.684151
v 0.375000 0.683253 0.684151
v 0.625000 0.466747 0.809151
v 0.375000 0.466747 0.809151
v 0.625000 0.714503 0.738277
v 0.375000 0.714503 0.738277
v 0.625000 0.497997 0.863277
v 0.375000 0.497997 0.863277
v 0.562500 0.691627 0.823654
v 0.437500 0.691627 0.823654
v 0.562500 0.583373 0.886154
v 0.437500 0.583373 0.886154
vt 0.5000 1.0000
vt 0.5000 0.6875
vt 0.8125 0.6875
vt 0.8125 1.0000
vt 0.5000 0.5000
vt 0.1667 0.5000
vt 0.0000 0.3333
vt 0.6667 0.3333
vt 0.5000 1.0000
vt 0.1667 1.0000
vt 0.5000 1.0000
vt 0.1667 1.0000
vt 0.1667 0.5000
vt 0.5000 0.5000
vt 0.1667 1.0000
vt 0.1667 0.5000
vt 0.5000 0.5000
vt 0.5000 1.0000
vt 0.1667 1.0000
vt 0.1667 0.5000
vt 0.5000 0.5000
vt 0.0000 0.1667
vt 0.6667 0.1667
vt 0.0000 0.3333
vt 0.6667 0.3333
vt 0.0000 0.3333
vt 0.6667 0.3333
vt 0.0000 0.3333
vt 0.6667 0.3333
vt 0.1667 0.0000
vt 0.5000 0.0000
vt 0.0000 0.1667
vt 0.6667 0.1667
vt 0.0000 0.1667
vt 0.6667 0.1667
vt 0.0000 0.1667
vt 0.6667 0.1667
vt 0.8125 0.6875
vt 0.8125 1.0000
vt 0.5000 1.0000
vt 0.5000 0.6875
vt 0.1667 0.0000
vt 0.5000 0.0000
vt 0.1667 0.0000
vt 0.5000 0.0000
vt 0.1667 0.0000
vt 0.5000 0.0000
vn -0.0000 -0.5000 -0.8660
vn 0.0000 -0.9659 -0.2588
vn 0.0000 -0.8822 0.4709
vn -0.9994 -0.0167 -0.0289
vn 0.0000 0.8489 -0.5286
vn 0.9994 -0.0167 -0.0289
vn 0.0000 -0.8660 0.5000
vn -0.7071 -0.3536 -0.6124
vn 0.0000 0.2588 -0.9659
vn 0.7071 -0.3536 -0.6124
vn 0.0000 -0.2588 0.9659
vn -1.0000 0.0000 0.0000
vn 0.0000 0.8660 -0.5000
vn 1.0000 0.0000 0.0000
vn 0.0000 0.5000 0.8660
vn -0.7071 0.3536 0.6124
vn 0.0000 0.9659 0.2588
vn 0.7071 0.3536 0.6124
s off
f 21/48/19 23/49/19 24/50/19 22/51/19
f 28/52/20 27/53/20 31/54/20 32/55/20
f 24/56/21 23/57/21 27/53/21 28/52/21
f 22/58/22 24/59/22 28/60/22 26/61/22
f 21/48/23 22/62/23 26/63/23 25/64/23
f 23/65/24 21/66/24 25/67/24 27/68/24
f 32/55/25 31/54/25 35/69/25 36/70/25
f 26/61/26 28/60/26 32/71/26 30/72/26
f 25/64/27 26/63/27 30/73/27 29/74/27
f 27/68/28 25/67/28 29/75/28 31/76/28
f 36/70/29 35/69/29 39/77/29 40/78/29
f 30/72/30 32/71/30 36/79/30 34/80/30
f 29/74/31 30/73/31 34/81/31 33/82/31
f 31/76/32 29/75/32 33/83/32 35/84/32
f 37/85/33 38/86/33 40/87/33 39/88/33
f 34/80/34 36/79/34 40/89/34 38/90/34
f 33/82/35 34/81/35 38/91/35 37/92/35
f 35/84/36 33/83/36 37/93/36 39/94/36
o Pod2
v 0.497981 0.873714 0.556250
v 0.497981 0.873714 0.443750
v 0.441731 0.776286 0.556250
v 0.441731 0.776286 0.443750
v 0.338726 0.972877 0.562500
v 0.338726 0.972877 0.437500
v 0.276226 0.864623 0.562500
v 0.276226 0.864623 0.437500
v 0.315849 1.058253 0.625000
v 0.315849 1.058253 0.375000
v 0.190849 0.841747 0.625000
v 0.190849 0.841747 0.375000
v 0.261723 1.089503 0.625000
v 0.261723 1.089503 0.375000
v 0.136723 0.872997 0.625000
v 0.136723 0.872997 0.375000
v 0.176346 1.066627 0.562500
v 0.176346 1.066627 0.437500
v 0.113846 0.958373 0.562500
v 0.113846 0.958373 0.437500
vt 0.5000 1.0000
vt 0.5000 0.6875
vt 0.8125 0.6875
vt 0.8125 1.0000
vt 0.5000 0.5000
vt 0.1562 0.5000
vt 0.0000 0.3438
vt 0.6562 0.3438
vt 0.5000 1.0000
vt 0.1562 1.0000
vt 0.5000 1.0000
vt 0.1562 1.0000
vt 0.1562 0.5000
vt 0.5000 0.5000
vt 0.1562 1.0000
vt 0.1562 0.5000
vt 0.5000 0.5000
vt 0.5000 1.0000
vt 0.1562 1.0000
vt 0.1562 0.5000
vt 0.5000 0.5000
vt 0.0000 0.1562
vt 0.6562 0.1562
vt 0.0000 0.3438
vt 0.6562 0.3438
vt 0.0000 0.3438
vt 0.6562 0.3438
vt 0.0000 0.3438
vt 0.6562 0.3438
vt 0.1562 0.0000
vt 0.5000 0.0000
vt 0.0000 0.1562
vt 0.6562 0.1562
vt 0.0000 0.1562
vt 0.6562 0.1562
vt 0.0000 0.1562
vt 0.6562 0.1562
vt 0.8125 0.6875
vt 0.8125 1.0000
vt 0.5000 1.0000
vt 0.5000 0.6875
vt 0.1562 0.0000
vt 0.5000 0.0000
vt 0.1562 0.0000
vt 0.5000 0.0000
vt 0.1562 0.0000
vt 0.5000 0.0000
vn 0.8660 -0.5000 0.0000
vn 0.2588 -0.9659 0.0000
vn -0.4709 -0.8822 0.0000
vn 0.0289 -0.0167 -0.9994
vn 0.5286 0.8489 0.0000
vn 0.0289 -0.0167 0.9994
vn -0.5000 -0.8660 0.0000
vn 0.6124 -0.3536 -0.7071
vn 0.9659 0.2588 0.0000
vn 0.6124 -0.3536 0.7071
vn -0.9659 -0.2588 0.0000
vn 0.0000 0.0000 -1.0000
vn 0.5000 0.8660 0.0000
vn 0.0000 0.0000 1.0000
vn -0.8660 0.5000 0.0000
vn -0.6124 0.3536 -0.7071
vn -0.2588 0.9659 0.0000
vn -0.6124 0.3536 0.7071
s off
f 41/95/37 43/96/37 44/97/37 42/98/37
f 48/99/38 47/100/38 51/101/38 52/102/38
f 44/103/39 43/104/39 47/100/39 48/99/39
f 42/105/40 44/106/40 48/107/40 46/108/40
f 41/95/41 42/109/41 46/110/41 45/111/41
f 43/112/42 41/113/42 45/114/42 47/115/42
f 52/102/43 51/101/43 55/116/43 56/117/43
f 46/108/44 48/107/44 52/118/44 50/119/44
f 45/111/45 46/110/45 50/120/45 49/121/45
f 47/115/46 45/114/46 49/122/46 51/123/46
f 56/117/47 55/116/47 59/124/47 60/125/47
f 50/119/48 52/118/48 56/126/48 54/127/48
f 49/121/49 50/120/49 54/128/49 53/129/49
f 51/123/50 49/122/50 53/130/50 55/131/50
f 57/132/51 58/133/51 60/134/51 59/135/51
f 54/127/52 56/126/52 60/136/52 58/137/52
f 53/129/53 54/128/53 58/138/53 57/139/53
f 55/131/54 53/130/54 57/140/54 59/141/54
o Pod1
v 0.443750 0.311214 0.497981
v 0.556250 0.311214 0.497981
v 0.443750 0.213786 0.441731
v 0.556250 0.213786 0.441731
v 0.437500 0.410377 0.338726
v 0.562500 0.410377 0.338726
v 0.437500 0.302123 0.276226
v 0.562500 0.302123 0.276226
v 0.375000 0.495753 0.315849
v 0.625000 0.495753 0.315849
v 0.375000 0.279247 0.190849
v 0.625000 0.279247 0.190849
v 0.375000 0.527003 0.261723
v 0.625000 0.527003 0.261723
v 0.375000 0.310497 0.136723
v 0.625000 0.310497 0.136723
v 0.437500 0.504126 0.176346
v 0.562500 0.504126 0.176346
v 0.437500 0.395873 0.113846
v 0.562500 0.395873 0.113846
vt 0.5000 1.0000
vt 0.5000 0.6875
vt 0.8125 0.6875
vt 0.8125 1.0000
vt 0.5000 0.5000
vt 0.1667 0.5000
vt 0.0000 0.3333
vt 0.6667 0.3333
vt 0.5000 1.0000
vt 0.1667 1.0000
vt 0.5000 1.0000
vt 0.1667 1.0000
vt 0.1667 0.5000
vt 0.5000 0.5000
vt 0.1667 1.0000
vt 0.1667 0.5000
vt 0.5000 0.5000
vt 0.5000 1.0000
vt 0.1667 1.0000
vt 0.1667 0.5000
vt 0.5000 0.5000
vt 0.0000 0.1667
vt 0.6667 0.1667
vt 0.0000 0.3333
vt 0.6667 0.3333
vt 0.0000 0.3333
vt 0.6667 0.3333
vt 0.0000 0.3333
vt 0.6667 0.3333
vt 0.1667 0.0000
vt 0.5000 0.0000
vt 0.0000 0.1667
vt 0.6667 0.1667
vt 0.0000 0.1667
vt 0.6667 0.1667
vt 0.0000 0.1667
vt 0.6667 0.1667
vt 0.8125 0.6875
vt 0.8125 1.0000
vt 0.5000 1.0000
vt 0.5000 0.6875
vt 0.1667 0.0000
vt 0.5000 0.0000
vt 0.1667 0.0000
vt 0.5000 0.0000
vt 0.1667 0.0000
vt 0.5000 0.0000
vn 0.0000 -0.5000 0.8660
vn 0.0000 -0.9659 0.2588
vn 0.0000 -0.8822 -0.4709
vn 0.9994 -0.0167 0.0289
vn 0.0000 0.8489 0.5286
vn -0.9994 -0.0167 0.0289
vn 0.0000 -0.8660 -0.5000
vn 0.7071 -0.3536 0.6124
vn 0.0000 0.2588 0.9659
vn -0.7071 -0.3536 0.6124
vn 0.0000 -0.2588 -0.9659
vn 1.0000 0.0000 0.0000
vn 0.0000 0.8660 0.5000
vn -1.0000 0.0000 0.0000
vn 0.0000 0.5000 -0.8660
vn 0.7071 0.3536 -0.6124
vn 0.0000 0.9659 -0.2588
vn -0.7071 0.3536 -0.6124
s off
f 61/142/55 63/143/55 64/144/55 62/145/55
f 68/146/56 67/147/56 71/148/56 72/149/56
f 64/150/57 63/151/57 67/147/57 68/146/57
f 62/152/58 64/153/58 68/154/58 66/155/58
f 61/142/59 62/156/59 66/157/59 65/158/59
f 63/159/60 61/160/60 65/161/60 67/162/60
f 72/149/61 71/148/61 75/163/61 76/164/61
f 66/155/62 68/154/62 72/165/62 70/166/62
f 65/158/63 66/157/63 70/167/63 69/168/63
f 67/162/64 65/161/64 69/169/64 71/170/64
f 76/164/65 75/163/65 79/171/65 80/172/65
f 70/166/66 72/165/66 76/173/66 74/174/66
f 69/168/67 70/167/67 74/175/67 73/176/67
f 71/170/68 69/169/68 73/177/68 75/178/68
f 77/179/69 78/180/69 80/181/69 79/182/69
f 74/174/70 76/173/70 80/183/70 78/184/70
f 73/176/71 74/175/71 78/185/71 77/186/71
f 75/178/72 73/177/72 77/187/72 79/188/72
o Foot
v 0.000000 0.000000 1.000000
v 1.000000 0.000000 1.000000
v 0.000000 0.000000 0.000000
v 1.000000 0.000000 0.000000
v 0.000000 0.062500 1.000000
v 1.000000 0.062500 1.000000
v 0.000000 0.062500 0.000000
v 1.000000 0.062500 0.000000
v 0.437500 0.125000 0.562500
v 0.562500 0.125000 0.562500
v 0.437500 0.125000 0.437500
v 0.562500 0.125000 0.437500
v 0.437500 1.000000 0.562500
v 0.562500 1.000000 0.562500
v 0.437500 1.000000 0.437500
v 0.562500 1.000000 0.437500
vt 0.0000 1.0000
vt 0.0000 0.0000
vt 1.0000 0.0000
vt 1.0000 1.0000
vt 1.0000 0.0000
vt 1.0000 1.0000
vt 0.5625 0.5625
vt 0.5625 0.4375
vt 1.0000 0.0625
vt 0.0000 0.0625
vt 0.0000 0.0000
vt 0.0000 0.0000
vt 1.0000 0.0625
vt 0.0000 0.0625
vt 0.0000 0.0000
vt 1.0000 0.0000
vt 1.0000 0.0625
vt 0.0000 0.0625
vt 1.0000 0.0625
vt 0.0000 0.0625
vt 0.0000 0.0000
vt 1.0000 0.0000
vt 0.4375 0.0000
vt 0.5625 0.0000
vt 0.5625 1.0000
vt 0.4375 1.0000
vt 0.0000 0.0000
vt 0.4375 0.4375
vt 0.0000 1.0000
vt 0.4375 0.5625
vt 0.4375 0.4375
vt 0.5625 0.4375
vt 0.5625 0.5625
vt 0.4375 0.5625
vt 0.4375 0.0000
vt 0.5625 0.0000
vt 0.5625 1.0000
vt 0.4375 1.0000
vt 0.4375 0.0000
vt 0.5625 0.0000
vt 0.5625 1.0000
vt 0.4375 1.0000
vt 0.4375 0.0000
vt 0.5625 0.0000
vt 0.5625 1.0000
vt 0.4375 1.0000
vn 0.0000 -1.0000 0.0000
vn 0.0000 0.9899 -0.1414
vn 0.0000 0.0000 -1.0000
vn 1.0000 0.0000 0.0000
vn 0.0000 0.0000 1.0000
vn -1.0000 0.0000 0.0000
vn 0.1414 0.9899 0.0000
vn 0.0000 0.9899 0.1414
vn -0.1414 0.9899 0.0000
vn 0.0000 1.0000 0.0000
s off
f 81/189/73 83/190/73 84/191/73 82/192/73
f 88/193/74 87/194/74 91/195/74 92/196/74
f 84/197/75 83/198/75 87/199/75 88/193/75
f 82/200/76 84/191/76 88/201/76 86/202/76
f 81/203/77 82/204/77 86/205/77 85/206/77
f 83/207/78 81/208/78 85/209/78 87/210/78
f 92/211/75 91/212/75 95/213/75 96/214/75
f 86/215/79 88/193/79 92/196/79 90/216/79
f 85/217/80 86/215/80 90/216/80 89/218/80
f 87/194/81 85/217/81 89/218/81 91/195/81
f 93/219/82 94/220/82 96/221/82 95/222/82
f 90/223/76 92/224/76 96/225/76 94/226/76
f 89/227/77 90/228/77 94/229/77 93/230/77
f 91/231/78 89/232/78 93/233/78 95/234/78
